<?xml version="1.0" encoding="UTF-8"?>
<svg xmlns="http://www.w3.org/2000/svg" xmlns:xlink="http://www.w3.org/1999/xlink" width="196pt" height="270pt" viewBox="0 0 196 270" version="1.1">
<g id="surface1">
<path style=" stroke:none;fill-rule:nonzero;fill:rgb(100%,100%,100%);fill-opacity:1;" d="M 0.738281 0.855469 L 195.847656 0.855469 L 195.847656 269.683594 L 0.738281 269.683594 Z M 0.738281 0.855469 "/>
<path style=" stroke:none;fill-rule:nonzero;fill:rgb(1.914978%,1.158142%,0.575256%);fill-opacity:1;" d="M 95.15625 143.300781 C 107.0625 142.703125 121.007812 143.253906 125.082031 144.5 C 125.371094 144.589844 125.652344 144.730469 125.925781 144.910156 C 127.964844 145.40625 130.242188 146.039062 132.273438 146.78125 C 137.550781 148.695312 142.34375 153.015625 145.585938 158.769531 C 148.820312 164.527344 148.703125 170.878906 148.339844 176.035156 C 147.980469 181.195312 144.386719 187.1875 142.105469 189.46875 C 139.828125 191.742188 134.914062 195.699219 131.074219 196.902344 C 129.980469 197.238281 128.605469 197.582031 127.199219 197.898438 C 126.007812 198.285156 124.316406 198.617188 122.285156 198.886719 C 121.757812 198.980469 121.292969 199.0625 120.917969 199.128906 C 120.71875 199.164062 120.546875 199.195312 120.402344 199.21875 L 120.402344 199.109375 C 113.980469 199.78125 105.042969 199.957031 97.140625 199.652344 L 97.140625 199.65625 L 74.839844 199.65625 L 74.839844 143.300781 Z M 120.402344 40.902344 L 120.402344 0.855469 L 97.140625 0.855469 L 97.140625 40.902344 L 74.839844 40.902344 L 74.839844 0.855469 L 51.578125 0.855469 L 51.578125 40.902344 L 0.738281 40.902344 L 0.738281 68.359375 L 33.113281 68.359375 L 33.113281 199.65625 L 7.691406 199.65625 L 7.691406 200.496094 L 0.738281 229.273438 L 51.578125 229.273438 L 51.578125 269.683594 L 74.839844 269.683594 L 74.839844 229.273438 L 97.140625 229.273438 L 97.140625 269.683594 L 120.402344 269.683594 L 120.402344 229.273438 L 127.355469 229.273438 L 127.355469 229.082031 C 132.140625 228.847656 138.457031 228.3125 142.707031 227.117188 C 150.378906 224.957031 159.972656 222.078125 165.007812 219.441406 C 170.042969 216.804688 175.800781 212.007812 179.394531 208.652344 C 182.996094 205.292969 183.714844 203.136719 187.308594 198.101562 C 190.910156 193.0625 194.144531 184.070312 195.585938 175.195312 C 197.023438 166.324219 192.226562 151.9375 188.871094 146.417969 C 185.511719 140.90625 177.476562 134.070312 177.476562 134.070312 C 177.476562 134.070312 171.242188 128.554688 162.371094 125.195312 C 162.035156 125.070312 161.691406 124.941406 161.347656 124.808594 C 161.414062 124.777344 161.472656 124.746094 161.53125 124.71875 C 166.566406 122.078125 168.367188 120.878906 172.082031 116.921875 C 175.800781 112.964844 179.515625 107.449219 181.554688 99.535156 C 183.59375 91.621094 181.078125 79.390625 178.4375 73.875 C 175.800781 68.359375 170.285156 61.167969 170.285156 61.167969 C 170.285156 61.167969 160.089844 50.972656 151.9375 47.136719 C 143.785156 43.300781 141.867188 43.0625 134.550781 41.980469 C 127.800781 40.984375 121.351562 40.910156 120.402344 40.902344 Z M 91.546875 68.359375 C 100.8125 67.867188 116.703125 69.667969 121.03125 72.058594 C 122.09375 72.492188 123.875 73.273438 124.839844 73.996094 C 126.277344 75.074219 129.875 78.671875 131.554688 81.550781 C 133.230469 84.429688 135.152344 90.421875 134.792969 95.578125 C 134.433594 100.734375 133.113281 105.410156 129.394531 109.847656 C 126.664062 113.109375 122.828125 114.882812 120.992188 115.589844 C 120.914062 115.636719 120.839844 115.683594 120.761719 115.722656 C 117.289062 117.621094 106.550781 118.820312 97.140625 119.046875 L 97.140625 119.082031 L 94.742188 119.082031 C 94.261719 119.085938 93.796875 119.085938 93.332031 119.082031 L 74.839844 119.082031 L 74.839844 68.359375 Z M 91.546875 68.359375 "/>
</g>
</svg>
