<?xml version="1.0" encoding="UTF-8"?>
<svg xmlns="http://www.w3.org/2000/svg" xmlns:xlink="http://www.w3.org/1999/xlink" width="91pt" height="91pt" viewBox="0 0 91 91" version="1.1">
<defs>
<clipPath id="clip1">
  <path d="M 1 0.496094 L 31 0.496094 L 31 31 L 1 31 Z M 1 0.496094 "/>
</clipPath>
<clipPath id="clip2">
  <path d="M 60 0.496094 L 91 0.496094 L 91 31 L 60 31 Z M 60 0.496094 "/>
</clipPath>
<clipPath id="clip3">
  <path d="M 1 60 L 31 60 L 31 90.929688 L 1 90.929688 Z M 1 60 "/>
</clipPath>
<clipPath id="clip4">
  <path d="M 52 86 L 57 86 L 57 90.929688 L 52 90.929688 Z M 52 86 "/>
</clipPath>
<clipPath id="clip5">
  <path d="M 1 0.496094 L 91 0.496094 L 91 90.929688 L 1 90.929688 Z M 1 0.496094 "/>
</clipPath>
<clipPath id="clip6">
  <path d="M 17 0.496094 L 66 0.496094 L 66 44 L 17 44 Z M 17 0.496094 "/>
</clipPath>
<clipPath id="clip7">
  <path d="M 1 34 L 74 34 L 74 90.929688 L 1 90.929688 Z M 1 34 "/>
</clipPath>
<clipPath id="clip8">
  <path d="M 82 77 L 91 77 L 91 90.929688 L 82 90.929688 Z M 82 77 "/>
</clipPath>
</defs>
<g id="surface1">
<g clip-path="url(#clip1)" clip-rule="nonzero">
<path style=" stroke:none;fill-rule:evenodd;fill:rgb(13.729858%,12.159729%,12.548828%);fill-opacity:1;" d="M 4.867188 26.292969 L 26.367188 26.292969 L 26.367188 4.796875 L 4.867188 4.796875 Z M 30.664062 0.5 L 30.664062 30.59375 L 0.570312 30.59375 C 0.855469 20.703125 -0.00390625 9.671875 1 0.5 Z M 30.664062 0.5 "/>
</g>
<g clip-path="url(#clip2)" clip-rule="nonzero">
<path style=" stroke:none;fill-rule:evenodd;fill:rgb(13.729858%,12.159729%,12.548828%);fill-opacity:1;" d="M 65.0625 26.292969 L 86.558594 26.292969 L 86.558594 4.796875 L 65.0625 4.796875 Z M 90.855469 0.5 L 90.855469 30.59375 L 60.761719 30.59375 C 61.046875 20.703125 60.1875 9.671875 61.191406 0.5 Z M 90.855469 0.5 "/>
</g>
<path style=" stroke:none;fill-rule:evenodd;fill:rgb(100%,100%,100%);fill-opacity:1;" d="M 9.167969 21.996094 L 22.066406 21.996094 L 22.066406 9.097656 L 9.167969 9.097656 Z M 26.367188 26.292969 L 4.867188 26.292969 L 4.867188 4.796875 L 26.367188 4.796875 Z M 26.367188 26.292969 "/>
<path style=" stroke:none;fill-rule:evenodd;fill:rgb(100%,100%,100%);fill-opacity:1;" d="M 69.359375 21.996094 L 82.257812 21.996094 L 82.257812 9.097656 L 69.359375 9.097656 Z M 86.558594 26.292969 L 65.0625 26.292969 L 65.0625 4.796875 L 86.558594 4.796875 Z M 86.558594 26.292969 "/>
<path style=" stroke:none;fill-rule:evenodd;fill:rgb(13.729858%,12.159729%,12.548828%);fill-opacity:1;" d="M 9.167969 9.097656 L 22.066406 9.097656 L 22.066406 21.996094 L 9.167969 21.996094 Z M 9.167969 9.097656 "/>
<path style=" stroke:none;fill-rule:evenodd;fill:rgb(13.729858%,12.159729%,12.548828%);fill-opacity:1;" d="M 69.359375 9.097656 L 82.257812 9.097656 L 82.257812 21.996094 L 69.359375 21.996094 Z M 69.359375 9.097656 "/>
<path style=" stroke:none;fill-rule:evenodd;fill:rgb(13.729858%,12.159729%,12.548828%);fill-opacity:1;" d="M 52.160156 43.492188 L 56.460938 43.492188 L 56.460938 47.789062 L 52.160156 47.789062 Z M 52.160156 43.492188 "/>
<path style=" stroke:none;fill-rule:evenodd;fill:rgb(13.729858%,12.159729%,12.548828%);fill-opacity:1;" d="M 77.960938 56.390625 L 86.558594 56.390625 L 86.558594 60.6875 L 90.855469 60.6875 L 90.855469 64.988281 L 77.960938 64.988281 Z M 77.960938 56.390625 "/>
<g clip-path="url(#clip3)" clip-rule="nonzero">
<path style=" stroke:none;fill-rule:evenodd;fill:rgb(13.729858%,12.159729%,12.548828%);fill-opacity:1;" d="M 4.867188 86.484375 L 26.367188 86.484375 L 26.367188 64.988281 L 4.867188 64.988281 Z M 30.664062 60.6875 L 30.664062 90.785156 L 0.570312 90.785156 C 0.855469 80.894531 -0.00390625 69.863281 1 60.6875 Z M 30.664062 60.6875 "/>
</g>
<path style=" stroke:none;fill-rule:evenodd;fill:rgb(100%,100%,100%);fill-opacity:1;" d="M 9.167969 82.1875 L 22.066406 82.1875 L 22.066406 69.289062 L 9.167969 69.289062 Z M 26.367188 86.484375 L 4.867188 86.484375 L 4.867188 64.988281 L 26.367188 64.988281 Z M 26.367188 86.484375 "/>
<path style=" stroke:none;fill-rule:evenodd;fill:rgb(100%,100%,100%);fill-opacity:1;" d="M 60.761719 64.988281 L 65.0625 64.988281 L 65.0625 69.289062 L 60.761719 69.289062 Z M 60.761719 64.988281 "/>
<path style=" stroke:none;fill-rule:evenodd;fill:rgb(13.729858%,12.159729%,12.548828%);fill-opacity:1;" d="M 9.167969 69.289062 L 22.066406 69.289062 L 22.066406 82.1875 L 9.167969 82.1875 Z M 9.167969 69.289062 "/>
<path style=" stroke:none;fill-rule:evenodd;fill:rgb(13.729858%,12.159729%,12.548828%);fill-opacity:1;" d="M 86.554688 77.886719 L 82.257812 77.886719 L 82.257812 82.1875 L 77.957031 82.1875 L 77.957031 73.585938 L 82.257812 73.585938 L 82.257812 69.289062 L 90.855469 69.289062 L 90.855469 73.585938 L 86.988281 73.585938 C 86.007812 74.183594 86.828125 76.578125 86.554688 77.886719 "/>
<path style=" stroke:none;fill-rule:evenodd;fill:rgb(13.729858%,12.159729%,12.548828%);fill-opacity:1;" d="M 52.160156 77.886719 L 56.460938 77.886719 L 56.460938 82.1875 L 52.160156 82.1875 Z M 52.160156 77.886719 "/>
<g clip-path="url(#clip4)" clip-rule="nonzero">
<path style=" stroke:none;fill-rule:evenodd;fill:rgb(13.729858%,12.159729%,12.548828%);fill-opacity:1;" d="M 52.160156 86.484375 L 56.460938 86.484375 L 56.460938 90.785156 L 52.160156 90.785156 Z M 52.160156 86.484375 "/>
</g>
<g clip-path="url(#clip5)" clip-rule="nonzero">
<path style=" stroke:none;fill-rule:evenodd;fill:rgb(100%,100%,100%);fill-opacity:1;" d="M 52.160156 90.785156 L 56.460938 90.785156 L 56.460938 86.484375 L 52.160156 86.484375 Z M 52.160156 82.1875 L 56.460938 82.1875 L 56.460938 77.886719 L 52.160156 77.886719 Z M 86.988281 73.585938 L 90.855469 73.585938 L 90.855469 69.289062 L 82.257812 69.289062 L 82.257812 73.585938 L 77.960938 73.585938 L 77.960938 82.1875 L 82.257812 82.1875 L 82.257812 77.886719 L 86.558594 77.886719 C 86.828125 76.578125 86.007812 74.183594 86.988281 73.585938 M 86.128906 82.1875 L 82.257812 82.1875 L 82.257812 90.785156 L 90.855469 90.785156 L 90.855469 86.484375 L 86.558594 86.484375 C 86.828125 85.179688 86.007812 82.78125 86.988281 82.1875 L 90.855469 82.1875 L 90.855469 77.886719 L 86.558594 77.886719 C 86.285156 79.195312 87.105469 81.589844 86.128906 82.1875 M 1 60.6875 C -0.00390625 69.863281 0.855469 80.894531 0.570312 90.785156 L 30.664062 90.785156 L 30.664062 60.6875 Z M 77.960938 64.988281 L 90.855469 64.988281 L 90.855469 60.6875 L 86.558594 60.6875 L 86.558594 56.390625 L 77.960938 56.390625 Z M 52.160156 47.789062 L 56.460938 47.789062 L 56.460938 43.492188 L 52.160156 43.492188 Z M 81.828125 43.492188 L 69.359375 43.492188 L 69.359375 47.789062 L 82.257812 47.789062 L 82.257812 52.089844 L 86.558594 52.089844 L 86.558594 47.789062 L 90.855469 47.789062 L 90.855469 39.191406 L 82.257812 39.191406 L 82.257812 34.894531 L 77.960938 34.894531 L 77.960938 39.191406 C 81.679688 37.917969 83.519531 40.78125 81.828125 43.492188 M 34.964844 47.789062 L 34.964844 73.585938 L 39.265625 73.585938 C 39.535156 72.28125 38.714844 69.882812 39.695312 69.289062 L 47.863281 69.289062 C 47.59375 70.59375 48.414062 72.992188 47.433594 73.585938 L 39.265625 73.585938 C 38.996094 74.894531 39.8125 77.289062 38.835938 77.886719 L 34.964844 77.886719 L 34.964844 90.785156 L 39.265625 90.785156 C 39.546875 88.058594 38.699219 84.199219 39.695312 82.1875 L 47.863281 82.1875 L 47.863281 73.585938 L 52.160156 73.585938 C 52.433594 72.28125 51.609375 69.882812 52.59375 69.289062 L 56.460938 69.289062 L 56.460938 73.585938 C 57.769531 73.855469 60.164062 73.035156 60.761719 74.015625 L 60.761719 77.886719 L 69.359375 77.886719 L 69.359375 86.484375 L 65.0625 86.484375 L 65.0625 82.1875 L 60.761719 82.1875 L 60.761719 90.785156 L 69.359375 90.785156 C 69.628906 89.476562 68.808594 87.082031 69.789062 86.484375 L 73.660156 86.484375 L 73.660156 77.886719 C 72.351562 77.617188 69.957031 78.4375 69.359375 77.457031 L 69.359375 69.289062 L 73.660156 69.289062 L 73.660156 64.988281 C 72.351562 64.71875 69.957031 65.539062 69.359375 64.558594 L 69.359375 56.390625 L 73.660156 56.390625 L 73.660156 52.089844 L 69.359375 52.089844 L 69.359375 56.390625 L 65.0625 56.390625 C 64.789062 57.695312 65.609375 60.09375 64.632812 60.6875 C 60.996094 61.601562 60.144531 59.726562 60.761719 56.390625 L 65.0625 56.390625 L 65.0625 47.789062 L 60.761719 47.789062 L 60.761719 56.390625 L 56.460938 56.390625 L 56.460938 64.988281 C 55.15625 64.71875 52.757812 65.539062 52.160156 64.558594 L 52.160156 56.390625 L 56.460938 56.390625 L 56.460938 52.089844 L 52.160156 52.089844 L 52.160156 56.390625 L 47.863281 56.390625 L 47.863281 64.988281 L 43.5625 64.988281 L 43.5625 60.6875 C 42.257812 60.421875 39.859375 61.238281 39.265625 60.257812 C 39.53125 59.09375 38.71875 56.847656 39.695312 56.390625 L 47.863281 56.390625 L 47.863281 47.789062 L 43.5625 47.789062 C 43.292969 49.097656 44.113281 51.496094 43.132812 52.089844 L 39.265625 52.089844 L 39.265625 47.789062 C 37.957031 47.519531 35.5625 48.339844 34.964844 47.359375 L 34.964844 43.492188 L 26.367188 43.492188 C 26.097656 44.800781 26.914062 47.195312 25.9375 47.789062 L 22.066406 47.789062 L 22.066406 43.492188 L 17.769531 43.492188 C 17.496094 44.800781 18.316406 47.195312 17.335938 47.789062 C 16.171875 47.523438 13.925781 48.335938 13.46875 47.359375 L 13.46875 34.894531 L 0.570312 34.894531 L 0.570312 43.492188 L 9.167969 43.492188 L 9.167969 52.089844 L 4.867188 52.089844 L 4.867188 47.789062 L 0.570312 47.789062 L 0.570312 56.390625 L 17.769531 56.390625 C 18.039062 55.082031 17.21875 52.6875 18.195312 52.089844 L 26.367188 52.089844 L 26.367188 56.390625 L 30.664062 56.390625 L 30.664062 52.089844 C 29.359375 51.820312 26.964844 52.640625 26.367188 51.660156 C 24.585938 45.722656 31.34375 48.324219 34.964844 47.789062 M 61.191406 0.5 C 60.1875 9.671875 61.046875 20.703125 60.761719 30.59375 L 90.855469 30.59375 L 90.855469 0.5 Z M 1 0.5 C -0.00390625 9.671875 0.855469 20.703125 0.570312 30.59375 L 30.664062 30.59375 L 30.664062 0.5 Z M 52.160156 30.59375 L 47.863281 30.59375 C 47.59375 31.902344 48.414062 34.296875 47.433594 34.894531 L 43.5625 34.894531 L 43.5625 30.59375 L 47.863281 30.59375 L 47.863281 26.292969 L 43.5625 26.292969 C 43.292969 27.601562 44.113281 29.996094 43.132812 30.59375 L 39.265625 30.59375 L 39.265625 26.292969 L 34.964844 26.292969 L 34.964844 34.894531 L 17.769531 34.894531 L 17.769531 39.191406 L 39.265625 39.191406 L 39.265625 43.492188 L 47.863281 43.492188 L 47.863281 39.191406 L 52.160156 39.191406 C 52.433594 37.886719 51.609375 35.488281 52.59375 34.894531 L 56.460938 34.894531 L 56.460938 39.191406 C 57.769531 39.460938 60.164062 38.640625 60.761719 39.621094 L 60.761719 43.492188 L 65.0625 43.492188 L 65.0625 34.894531 L 56.460938 34.894531 L 56.460938 17.695312 C 55.15625 17.425781 52.757812 18.246094 52.160156 17.265625 L 52.160156 13.394531 L 56.460938 13.394531 L 56.460938 9.097656 C 55.15625 8.828125 52.757812 9.648438 52.160156 8.667969 L 52.160156 4.796875 L 56.460938 4.796875 L 56.460938 0.5 L 47.863281 0.5 C 47.59375 1.804688 48.414062 4.203125 47.433594 4.796875 L 43.5625 4.796875 L 43.5625 0.5 L 39.265625 0.5 L 39.265625 9.097656 L 34.964844 9.097656 L 34.964844 13.394531 L 39.265625 13.394531 L 39.265625 17.695312 L 43.5625 17.695312 L 43.5625 9.097656 C 44.871094 9.367188 47.269531 8.546875 47.863281 9.527344 L 47.863281 17.695312 L 43.5625 17.695312 L 43.5625 21.996094 L 47.863281 21.996094 C 48.132812 20.6875 47.3125 18.292969 48.292969 17.695312 C 55.378906 16.199219 50.925781 26.242188 52.160156 30.59375 M -18.347656 -18.847656 L 110.203125 -18.847656 L 110.203125 110.132812 L -18.777344 110.132812 L -18.777344 -17.558594 C -18.8125 -18.167969 -18.847656 -18.777344 -18.347656 -18.847656 "/>
</g>
<g clip-path="url(#clip6)" clip-rule="nonzero">
<path style=" stroke:none;fill-rule:evenodd;fill:rgb(13.729858%,12.159729%,12.548828%);fill-opacity:1;" d="M 48.292969 17.695312 C 47.3125 18.292969 48.132812 20.6875 47.863281 21.996094 L 43.5625 21.996094 L 43.5625 17.695312 L 47.863281 17.695312 L 47.863281 9.527344 C 47.269531 8.546875 44.871094 9.367188 43.5625 9.097656 L 43.5625 17.695312 L 39.265625 17.695312 L 39.265625 13.394531 L 34.964844 13.394531 L 34.964844 9.097656 L 39.265625 9.097656 L 39.265625 0.5 L 43.5625 0.5 L 43.5625 4.796875 L 47.433594 4.796875 C 48.414062 4.203125 47.59375 1.804688 47.863281 0.5 L 56.460938 0.5 L 56.460938 4.796875 L 52.160156 4.796875 L 52.160156 8.667969 C 52.757812 9.648438 55.15625 8.828125 56.460938 9.097656 L 56.460938 13.394531 L 52.160156 13.394531 L 52.160156 17.265625 C 52.757812 18.246094 55.15625 17.425781 56.460938 17.695312 L 56.460938 34.894531 L 65.0625 34.894531 L 65.0625 43.492188 L 60.761719 43.492188 L 60.761719 39.621094 C 60.164062 38.640625 57.769531 39.460938 56.460938 39.191406 L 56.460938 34.894531 L 52.59375 34.894531 C 51.609375 35.488281 52.433594 37.886719 52.160156 39.191406 L 47.863281 39.191406 L 47.863281 43.492188 L 39.265625 43.492188 L 39.265625 39.191406 L 17.769531 39.191406 L 17.769531 34.894531 L 34.964844 34.894531 L 34.964844 26.292969 L 39.265625 26.292969 L 39.265625 30.59375 L 43.132812 30.59375 C 44.113281 29.996094 43.292969 27.601562 43.5625 26.292969 L 47.863281 26.292969 L 47.863281 30.59375 L 43.5625 30.59375 L 43.5625 34.894531 L 47.433594 34.894531 C 48.414062 34.296875 47.59375 31.902344 47.863281 30.59375 L 52.160156 30.59375 C 50.925781 26.242188 55.378906 16.199219 48.292969 17.695312 "/>
</g>
<g clip-path="url(#clip7)" clip-rule="nonzero">
<path style=" stroke:none;fill-rule:evenodd;fill:rgb(13.729858%,12.159729%,12.548828%);fill-opacity:1;" d="M 60.761719 69.289062 L 65.0625 69.289062 L 65.0625 64.988281 L 60.761719 64.988281 Z M 26.367188 51.660156 C 26.964844 52.640625 29.359375 51.820312 30.664062 52.089844 L 30.664062 56.390625 L 26.367188 56.390625 L 26.367188 52.089844 L 18.195312 52.089844 C 17.21875 52.6875 18.039062 55.082031 17.769531 56.390625 L 0.570312 56.390625 L 0.570312 47.789062 L 4.867188 47.789062 L 4.867188 52.089844 L 9.167969 52.089844 L 9.167969 43.492188 L 0.570312 43.492188 L 0.570312 34.894531 L 13.46875 34.894531 L 13.46875 47.359375 C 13.925781 48.335938 16.171875 47.523438 17.335938 47.789062 C 18.316406 47.195312 17.496094 44.800781 17.769531 43.492188 L 22.066406 43.492188 L 22.066406 47.789062 L 25.9375 47.789062 C 26.914062 47.195312 26.097656 44.800781 26.367188 43.492188 L 34.964844 43.492188 L 34.964844 47.359375 C 35.5625 48.339844 37.957031 47.519531 39.265625 47.789062 L 39.265625 52.089844 L 43.132812 52.089844 C 44.113281 51.496094 43.292969 49.097656 43.5625 47.789062 L 47.863281 47.789062 L 47.863281 56.390625 L 39.695312 56.390625 C 38.71875 56.847656 39.53125 59.09375 39.265625 60.257812 C 39.859375 61.238281 42.257812 60.421875 43.5625 60.6875 L 43.5625 64.988281 L 47.863281 64.988281 L 47.863281 56.390625 L 52.160156 56.390625 L 52.160156 52.089844 L 56.460938 52.089844 L 56.460938 56.390625 L 52.160156 56.390625 L 52.160156 64.558594 C 52.757812 65.539062 55.15625 64.71875 56.460938 64.988281 L 56.460938 56.390625 L 60.761719 56.390625 L 60.761719 47.789062 L 65.0625 47.789062 L 65.0625 56.390625 L 60.761719 56.390625 C 60.144531 59.726562 60.996094 61.601562 64.632812 60.6875 C 65.609375 60.09375 64.789062 57.695312 65.0625 56.390625 L 69.359375 56.390625 L 69.359375 52.089844 L 73.660156 52.089844 L 73.660156 56.390625 L 69.359375 56.390625 L 69.359375 64.558594 C 69.957031 65.539062 72.351562 64.71875 73.660156 64.988281 L 73.660156 69.289062 L 69.359375 69.289062 L 69.359375 77.457031 C 69.957031 78.4375 72.351562 77.617188 73.660156 77.886719 L 73.660156 86.484375 L 69.789062 86.484375 C 68.808594 87.082031 69.628906 89.476562 69.359375 90.785156 L 60.761719 90.785156 L 60.761719 82.1875 L 65.0625 82.1875 L 65.0625 86.484375 L 69.359375 86.484375 L 69.359375 77.886719 L 60.761719 77.886719 L 60.761719 74.015625 C 60.164062 73.035156 57.769531 73.855469 56.460938 73.585938 L 56.460938 69.289062 L 52.59375 69.289062 C 51.609375 69.882812 52.433594 72.28125 52.160156 73.585938 L 47.863281 73.585938 L 47.863281 82.1875 L 39.695312 82.1875 C 38.699219 84.199219 39.546875 88.058594 39.265625 90.785156 L 34.964844 90.785156 L 34.964844 77.886719 L 38.835938 77.886719 C 39.8125 77.289062 38.996094 74.894531 39.265625 73.585938 L 47.433594 73.585938 C 48.414062 72.992188 47.59375 70.59375 47.863281 69.289062 L 39.695312 69.289062 C 38.714844 69.882812 39.535156 72.28125 39.265625 73.585938 L 34.964844 73.585938 L 34.964844 47.789062 C 31.34375 48.324219 24.585938 45.722656 26.367188 51.660156 "/>
</g>
<path style=" stroke:none;fill-rule:evenodd;fill:rgb(13.729858%,12.159729%,12.548828%);fill-opacity:1;" d="M 77.960938 39.191406 L 77.960938 34.894531 L 82.257812 34.894531 L 82.257812 39.191406 L 90.855469 39.191406 L 90.855469 47.792969 L 86.558594 47.792969 L 86.558594 52.089844 L 82.257812 52.089844 L 82.257812 47.792969 L 69.359375 47.792969 L 69.359375 43.492188 L 81.828125 43.492188 C 83.519531 40.785156 81.679688 37.917969 77.960938 39.191406 "/>
<g clip-path="url(#clip8)" clip-rule="nonzero">
<path style=" stroke:none;fill-rule:evenodd;fill:rgb(13.729858%,12.159729%,12.548828%);fill-opacity:1;" d="M 86.554688 77.886719 L 90.855469 77.886719 L 90.855469 82.1875 L 86.988281 82.1875 C 86.007812 82.78125 86.828125 85.179688 86.554688 86.484375 L 90.855469 86.484375 L 90.855469 90.785156 L 82.257812 90.785156 L 82.257812 82.1875 L 86.125 82.1875 C 87.109375 81.589844 86.285156 79.195312 86.554688 77.886719 "/>
</g>
</g>
</svg>
