<?xml version="1.0" encoding="UTF-8"?>
<svg xmlns="http://www.w3.org/2000/svg" xmlns:xlink="http://www.w3.org/1999/xlink" width="222pt" height="216pt" viewBox="0 0 222 216" version="1.1">
<defs>
<clipPath id="clip1">
  <path d="M 6 0 L 222 0 L 222 215.960938 L 6 215.960938 Z M 6 0 "/>
</clipPath>
</defs>
<g id="surface1">
<g clip-path="url(#clip1)" clip-rule="nonzero">
<path style="fill:none;stroke-width:3;stroke-linecap:butt;stroke-linejoin:miter;stroke:rgb(78.399658%,9.799194%,11.399841%);stroke-opacity:1;stroke-miterlimit:10;" d="M 0.0000375 -0.00050625 C 0.0000375 -0.00050625 -25.99215 -53.395037 -45.675744 -57.305194 C -64.7734 -61.098162 -72.839806 -42.758319 -88.937462 -40.098162 C -119.152306 -35.109881 -144.394494 -54.301287 -144.394494 -92.676287 C -144.394494 -131.051287 -119.152306 -150.242694 -88.937462 -145.250506 C -72.839806 -142.594256 -64.7734 -124.250506 -45.675744 -128.047381 C -25.99215 -131.957537 0.0000375 -185.352069 0.0000375 -185.352069 " transform="matrix(1,0,0,-1,193.7109,14.9409)"/>
</g>
<path style="fill:none;stroke-width:2;stroke-linecap:butt;stroke-linejoin:miter;stroke:rgb(13.699341%,12.199402%,12.5%);stroke-opacity:1;stroke-miterlimit:4;" d="M -0.00000625 -0.0014875 L -0.00000625 -181.876487 " transform="matrix(1,0,0,-1,114.6211,16.9907)"/>
<path style=" stroke:none;fill-rule:nonzero;fill:rgb(13.699341%,12.199402%,12.5%);fill-opacity:1;" d="M 117.027344 10.167969 C 118.160156 13.972656 119.214844 16.453125 120.425781 19.507812 L 108.816406 19.46875 C 109.339844 18.382812 111.121094 13.949219 112.285156 10.160156 C 113.535156 6.089844 114.378906 2.402344 114.691406 0.0117188 C 114.980469 2.410156 115.816406 6.105469 117.027344 10.167969 "/>
<path style=" stroke:none;fill-rule:nonzero;fill:rgb(13.699341%,12.199402%,12.5%);fill-opacity:1;" d="M 112.214844 204.84375 C 111.082031 201.039062 110.027344 198.5625 108.816406 195.507812 L 120.425781 195.546875 C 119.902344 196.632812 118.121094 201.0625 116.957031 204.851562 C 115.707031 208.921875 114.863281 212.609375 114.550781 215 C 114.261719 212.601562 113.425781 208.90625 112.214844 204.84375 "/>
<path style="fill:none;stroke-width:2;stroke-linecap:butt;stroke-linejoin:miter;stroke:rgb(13.699341%,12.199402%,12.5%);stroke-opacity:1;stroke-miterlimit:4;" d="M -0.0005375 -0.0010125 L 187.874462 -0.0010125 " transform="matrix(1,0,0,-1,17.9771,107.5068)"/>
<path style=" stroke:none;fill-rule:nonzero;fill:rgb(13.699341%,12.199402%,12.5%);fill-opacity:1;" d="M 11.15625 105.101562 C 14.960938 103.96875 17.4375 102.914062 20.492188 101.703125 L 20.453125 113.3125 C 19.367188 112.789062 14.9375 111.007812 11.148438 109.84375 C 7.078125 108.59375 3.390625 107.75 1 107.4375 C 3.398438 107.148438 7.09375 106.3125 11.15625 105.101562 "/>
<path style=" stroke:none;fill-rule:nonzero;fill:rgb(13.699341%,12.199402%,12.5%);fill-opacity:1;" d="M 211.828125 109.914062 C 208.023438 111.046875 205.546875 112.101562 202.492188 113.3125 L 202.53125 101.703125 C 203.617188 102.226562 208.046875 104.007812 211.835938 105.171875 C 215.90625 106.421875 219.59375 107.265625 221.984375 107.578125 C 219.585938 107.867188 215.890625 108.703125 211.828125 109.914062 "/>
</g>
</svg>
