<?xml version="1.0" encoding="UTF-8"?>
<svg xmlns="http://www.w3.org/2000/svg" xmlns:xlink="http://www.w3.org/1999/xlink" width="255pt" height="254pt" viewBox="0 0 255 254" version="1.1">
<g id="surface1">
<path style=" stroke:none;fill-rule:nonzero;fill:rgb(83.610535%,89.564514%,96.49353%);fill-opacity:1;" d="M 6.664062 43.070312 L 29.890625 130.621094 L 197.324219 147.449219 L 229.03125 31.519531 Z M 6.664062 43.070312 "/>
<path style=" stroke:none;fill-rule:nonzero;fill:rgb(46.511841%,45.53833%,45.780945%);fill-opacity:1;" d="M 33.578125 126.292969 L 193.855469 142.402344 L 222.816406 36.523438 L 12.660156 47.441406 Z M 200.789062 152.496094 L 26.203125 134.949219 L 0.667969 38.703125 L 235.246094 26.515625 Z M 200.789062 152.496094 "/>
<path style=" stroke:none;fill-rule:nonzero;fill:rgb(46.511841%,45.53833%,45.780945%);fill-opacity:1;" d="M 53.792969 137.617188 C 51.574219 137.617188 49.605469 136.027344 49.199219 133.769531 L 32.75 42.304688 C 32.292969 39.761719 33.984375 37.332031 36.523438 36.875 C 39.058594 36.414062 41.496094 38.109375 41.953125 40.648438 L 58.402344 132.113281 C 58.859375 134.65625 57.167969 137.085938 54.628906 137.542969 C 54.347656 137.59375 54.070312 137.617188 53.792969 137.617188 "/>
<path style=" stroke:none;fill-rule:nonzero;fill:rgb(46.511841%,45.53833%,45.780945%);fill-opacity:1;" d="M 110.527344 143.460938 C 107.945312 143.460938 105.851562 141.367188 105.851562 138.785156 L 105.851562 37.675781 C 105.851562 35.09375 107.945312 33 110.527344 33 C 113.105469 33 115.199219 35.09375 115.199219 37.675781 L 115.199219 138.785156 C 115.199219 141.367188 113.105469 143.460938 110.527344 143.460938 "/>
<path style=" stroke:none;fill-rule:nonzero;fill:rgb(46.511841%,45.53833%,45.780945%);fill-opacity:1;" d="M 172.007812 150.257812 C 171.730469 150.257812 171.453125 150.234375 171.175781 150.183594 C 168.636719 149.726562 166.941406 147.296875 167.398438 144.757812 L 187.476562 32.617188 C 187.933594 30.074219 190.367188 28.382812 192.902344 28.835938 C 195.445312 29.292969 197.136719 31.722656 196.679688 34.261719 L 176.601562 146.402344 C 176.195312 148.667969 174.226562 150.257812 172.007812 150.257812 "/>
<path style=" stroke:none;fill-rule:nonzero;fill:rgb(46.511841%,45.53833%,45.780945%);fill-opacity:1;" d="M 139.847656 146.492188 C 139.695312 146.492188 139.535156 146.484375 139.378906 146.46875 C 136.8125 146.210938 134.9375 143.921875 135.191406 141.351562 L 145.8125 35.234375 C 146.070312 32.667969 148.367188 30.800781 150.929688 31.050781 C 153.496094 31.304688 155.371094 33.597656 155.113281 36.167969 L 144.496094 142.28125 C 144.253906 144.691406 142.222656 146.492188 139.847656 146.492188 "/>
<path style=" stroke:none;fill-rule:nonzero;fill:rgb(46.511841%,45.53833%,45.780945%);fill-opacity:1;" d="M 81.527344 140.40625 C 79.1875 140.40625 77.167969 138.652344 76.890625 136.273438 L 65.6875 40.308594 C 65.386719 37.742188 67.222656 35.421875 69.785156 35.121094 C 72.355469 34.816406 74.671875 36.660156 74.972656 39.222656 L 86.175781 135.1875 C 86.476562 137.753906 84.640625 140.074219 82.078125 140.375 C 81.890625 140.394531 81.710938 140.40625 81.527344 140.40625 "/>
<path style=" stroke:none;fill-rule:nonzero;fill:rgb(46.511841%,45.53833%,45.780945%);fill-opacity:1;" d="M 230.902344 218.507812 L 39.550781 218.507812 C 36.96875 218.507812 34.875 216.414062 34.875 213.832031 C 34.875 211.25 36.96875 209.15625 39.550781 209.15625 L 230.902344 209.15625 C 233.480469 209.15625 235.574219 211.25 235.574219 213.832031 C 235.574219 216.414062 233.480469 218.507812 230.902344 218.507812 "/>
<path style=" stroke:none;fill-rule:nonzero;fill:rgb(78.431702%,78.039551%,78.137207%);fill-opacity:1;" d="M 39.550781 208.15625 L 230.902344 209.15625 L 39.550781 210.15625 Z M 39.550781 208.15625 "/>
<path style=" stroke:none;fill-rule:nonzero;fill:rgb(46.511841%,45.53833%,45.780945%);fill-opacity:1;" d="M 230.902344 218.507812 C 228.320312 218.507812 226.226562 216.414062 226.226562 213.832031 L 226.226562 202.855469 L 192.4375 155.257812 L 176.242188 153.210938 L 201.464844 201.378906 C 201.816406 202.046875 202 202.789062 202 203.546875 L 202 213.832031 C 202 216.414062 199.90625 218.507812 197.324219 218.507812 C 194.742188 218.507812 192.648438 216.414062 192.648438 213.832031 L 192.648438 204.695312 L 163.808594 149.617188 C 163 148.078125 163.117188 146.214844 164.109375 144.78125 C 165.101562 143.355469 166.8125 142.597656 168.535156 142.8125 L 195.648438 146.242188 C 196.945312 146.40625 198.117188 147.105469 198.875 148.171875 L 234.714844 198.660156 C 235.273438 199.449219 235.574219 200.394531 235.574219 201.363281 L 235.574219 213.832031 C 235.574219 216.414062 233.480469 218.507812 230.902344 218.507812 "/>
<path style=" stroke:none;fill-rule:nonzero;fill:rgb(46.511841%,45.53833%,45.780945%);fill-opacity:1;" d="M 164.515625 218.507812 C 163.683594 218.507812 162.839844 218.28125 162.078125 217.816406 C 159.875 216.46875 159.1875 213.589844 160.535156 211.390625 L 166.457031 201.726562 C 167.304688 200.339844 168.816406 199.496094 170.441406 199.496094 L 230.902344 199.496094 C 233.484375 199.496094 235.574219 201.585938 235.574219 204.167969 C 235.574219 206.75 233.484375 208.84375 230.902344 208.84375 L 173.058594 208.84375 L 168.503906 216.273438 C 167.625 217.710938 166.089844 218.507812 164.515625 218.507812 "/>
<path style=" stroke:none;fill-rule:nonzero;fill:rgb(46.511841%,45.53833%,45.780945%);fill-opacity:1;" d="M 167.945312 153.0625 C 167.015625 153.0625 166.082031 152.832031 165.214844 152.347656 C 162.507812 150.835938 161.539062 147.421875 163.050781 144.714844 L 220.175781 42.425781 L 225.386719 14.59375 C 225.707031 12.894531 226.789062 11.4375 228.324219 10.644531 L 246.398438 1.292969 C 249.152344 -0.125 252.535156 0.949219 253.957031 3.699219 C 255.382812 6.449219 254.304688 9.835938 251.550781 11.257812 L 235.910156 19.347656 L 231.035156 45.390625 C 230.921875 45.988281 230.714844 46.5625 230.417969 47.09375 L 172.847656 150.1875 C 171.820312 152.027344 169.910156 153.0625 167.945312 153.0625 "/>
<path style=" stroke:none;fill-rule:nonzero;fill:rgb(78.431702%,78.039551%,78.137207%);fill-opacity:1;" d="M 228.324219 10.644531 C 229.640625 9.496094 231.046875 8.523438 232.484375 7.613281 C 233.925781 6.707031 235.394531 5.859375 236.902344 5.082031 C 238.40625 4.296875 239.949219 3.589844 241.519531 2.9375 C 243.09375 2.289062 244.703125 1.703125 246.398438 1.292969 C 245.082031 2.441406 243.675781 3.414062 242.238281 4.324219 C 240.796875 5.230469 239.328125 6.082031 237.820312 6.855469 C 236.3125 7.636719 234.773438 8.347656 233.199219 8.996094 C 231.625 9.644531 230.019531 10.230469 228.324219 10.644531 "/>
<path style=" stroke:none;fill-rule:nonzero;fill:rgb(46.511841%,45.53833%,45.780945%);fill-opacity:1;" d="M 81.3125 237.515625 C 81.3125 246.464844 74.054688 253.722656 65.105469 253.722656 C 56.15625 253.722656 48.902344 246.464844 48.902344 237.515625 C 48.902344 228.566406 56.15625 221.3125 65.105469 221.3125 C 74.054688 221.3125 81.3125 228.566406 81.3125 237.515625 "/>
<path style=" stroke:none;fill-rule:nonzero;fill:rgb(56.864929%,56.079102%,56.274414%);fill-opacity:1;" d="M 45.578125 216.324219 L 45.578125 231.90625 L 67.597656 243.125 L 70.328125 236.890625 L 57.953125 216.324219 "/>
<path style=" stroke:none;fill-rule:nonzero;fill:rgb(46.511841%,45.53833%,45.780945%);fill-opacity:1;" d="M 244.199219 237.515625 C 244.199219 246.464844 236.941406 253.722656 227.992188 253.722656 C 219.042969 253.722656 211.785156 246.464844 211.785156 237.515625 C 211.785156 228.566406 219.042969 221.3125 227.992188 221.3125 C 236.941406 221.3125 244.199219 228.566406 244.199219 237.515625 "/>
<path style=" stroke:none;fill-rule:nonzero;fill:rgb(30.984497%,29.728699%,30.039978%);fill-opacity:1;" d="M 242.730469 235.023438 C 243.535156 244.878906 236.308594 252.167969 226.527344 251.226562 C 233.902344 247.4375 240.183594 242.753906 242.730469 235.023438 "/>
<path style=" stroke:none;fill-rule:nonzero;fill:rgb(30.984497%,29.728699%,30.039978%);fill-opacity:1;" d="M 78.402344 235.023438 C 79.207031 244.878906 71.980469 252.167969 62.195312 251.226562 C 69.570312 247.4375 75.855469 242.753906 78.402344 235.023438 "/>
<path style=" stroke:none;fill-rule:nonzero;fill:rgb(56.864929%,56.079102%,56.274414%);fill-opacity:1;" d="M 208.460938 216.324219 L 208.460938 231.90625 L 230.484375 243.125 L 233.214844 236.890625 L 220.839844 216.324219 Z M 208.460938 216.324219 "/>
<path style=" stroke:none;fill-rule:nonzero;fill:rgb(46.511841%,45.53833%,45.780945%);fill-opacity:1;" d="M 220.976562 65.632812 L 11.410156 65.632812 C 8.828125 65.632812 6.734375 63.539062 6.734375 60.957031 C 6.734375 58.375 8.828125 56.285156 11.410156 56.285156 L 220.976562 56.285156 C 223.558594 56.285156 225.652344 58.375 225.652344 60.957031 C 225.652344 63.539062 223.558594 65.632812 220.976562 65.632812 "/>
<path style=" stroke:none;fill-rule:nonzero;fill:rgb(78.431702%,78.039551%,78.137207%);fill-opacity:1;" d="M 11.40625 55.285156 L 220.976562 56.285156 L 11.40625 57.285156 Z M 11.40625 55.285156 "/>
<path style=" stroke:none;fill-rule:nonzero;fill:rgb(46.511841%,45.53833%,45.780945%);fill-opacity:1;" d="M 211.347656 100.855469 C 211.292969 100.855469 211.238281 100.851562 211.179688 100.851562 L 19.296875 94.109375 C 16.714844 94.019531 14.699219 91.851562 14.789062 89.273438 C 14.878906 86.691406 17.070312 84.675781 19.625 84.765625 L 211.511719 91.507812 C 214.089844 91.597656 216.109375 93.761719 216.019531 96.34375 C 215.929688 98.867188 213.855469 100.855469 211.347656 100.855469 "/>
<path style=" stroke:none;fill-rule:nonzero;fill:rgb(78.431702%,78.039551%,78.137207%);fill-opacity:1;" d="M 19.660156 83.765625 L 211.511719 91.507812 L 19.589844 85.765625 Z M 19.660156 83.765625 "/>
<path style=" stroke:none;fill-rule:nonzero;fill:rgb(46.511841%,45.53833%,45.780945%);fill-opacity:1;" d="M 204.050781 127.546875 C 203.941406 127.546875 203.832031 127.542969 203.726562 127.535156 L 24.328125 115.222656 C 21.753906 115.046875 19.808594 112.816406 19.984375 110.238281 C 20.160156 107.664062 22.378906 105.71875 24.96875 105.898438 L 204.363281 118.210938 C 206.941406 118.386719 208.886719 120.617188 208.707031 123.195312 C 208.539062 125.660156 206.484375 127.546875 204.050781 127.546875 "/>
<path style=" stroke:none;fill-rule:nonzero;fill:rgb(78.431702%,78.039551%,78.137207%);fill-opacity:1;" d="M 25.039062 104.898438 L 204.367188 118.210938 L 24.902344 106.894531 Z M 25.039062 104.898438 "/>
<path style=" stroke:none;fill-rule:nonzero;fill:rgb(78.431702%,78.039551%,78.137207%);fill-opacity:1;" d="M 0.613281 37.703125 L 235.246094 26.515625 L 0.71875 39.699219 Z M 0.613281 37.703125 "/>
<path style=" stroke:none;fill-rule:nonzero;fill:rgb(78.431702%,78.039551%,78.137207%);fill-opacity:1;" d="M 57.953125 216.324219 C 56.921875 216.511719 55.890625 216.648438 54.859375 216.765625 C 53.828125 216.878906 52.796875 216.976562 51.765625 217.046875 C 49.703125 217.191406 47.640625 217.289062 45.578125 217.300781 L 46.554688 216.324219 C 46.585938 217.625 46.570312 218.921875 46.546875 220.21875 C 46.542969 221.519531 46.460938 222.816406 46.410156 224.113281 C 46.25 226.710938 46.042969 229.308594 45.578125 231.90625 C 45.109375 229.308594 44.902344 226.710938 44.742188 224.113281 C 44.695312 222.816406 44.609375 221.519531 44.605469 220.21875 C 44.585938 218.921875 44.566406 217.625 44.597656 216.324219 L 44.621094 215.339844 L 45.578125 215.34375 C 47.640625 215.359375 49.703125 215.457031 51.765625 215.597656 C 52.796875 215.671875 53.828125 215.769531 54.859375 215.882812 C 55.890625 216 56.921875 216.136719 57.953125 216.324219 "/>
<path style=" stroke:none;fill-rule:nonzero;fill:rgb(78.431702%,78.039551%,78.137207%);fill-opacity:1;" d="M 220.839844 216.324219 C 219.808594 216.511719 218.773438 216.648438 217.742188 216.765625 C 216.714844 216.878906 215.683594 216.976562 214.648438 217.046875 C 212.589844 217.191406 210.523438 217.289062 208.464844 217.300781 L 209.441406 216.324219 C 209.472656 217.625 209.453125 218.921875 209.433594 220.21875 C 209.429688 221.519531 209.34375 222.816406 209.296875 224.113281 C 209.136719 226.710938 208.929688 229.308594 208.460938 231.90625 C 207.996094 229.308594 207.785156 226.710938 207.628906 224.113281 C 207.578125 222.816406 207.496094 221.519531 207.492188 220.21875 C 207.472656 218.921875 207.453125 217.625 207.484375 216.324219 L 207.507812 215.339844 L 208.464844 215.34375 C 210.523438 215.359375 212.589844 215.457031 214.648438 215.597656 C 215.683594 215.671875 216.714844 215.769531 217.742188 215.882812 C 218.773438 216 219.808594 216.136719 220.839844 216.324219 "/>
<path style=" stroke:none;fill-rule:nonzero;fill:rgb(30.984497%,29.728699%,30.039978%);fill-opacity:1;" d="M 200.691406 153.492188 L 26.203125 134.949219 L 200.890625 151.503906 Z M 200.691406 153.492188 "/>
</g>
</svg>
